<?xml version="1.0" encoding="UTF-8" standalone="no"?>
<svg width="200px" height="960px" viewBox="0 0 200 960" version="1.1" xmlns="http://www.w3.org/2000/svg" xmlns:xlink="http://www.w3.org/1999/xlink">
    <!-- Generator: Sketch 3.6.1 (26313) - http://www.bohemiancoding.com/sketch -->
    <title>Icons</title>
    <desc>Created with Sketch.</desc>
    <defs></defs>
    <g id="Welcome" stroke="none" stroke-width="1" fill="none" fill-rule="evenodd">
        <g id="Tablet-Portrait" transform="translate(-285.000000, -30.000000)">
            <g id="Icons" transform="translate(185.000000, 160.000000)">
                <g id="mouse" transform="translate(250.000000, 238.000000)" fill="#BBBBBB">
                    <path d="M25.2296875,14.0124242 C24.0546875,14.0124242 23.1023437,13.052 23.1023437,11.8670303 C23.1023437,10.6812727 24.0539062,9.72321212 25.2296875,9.72321212 C26.4039062,9.72321212 27.3570312,10.6820606 27.3570312,11.8670303 C27.3570312,13.052 26.4039062,14.0124242 25.2296875,14.0124242 L25.2296875,14.0124242 Z" id="Shape"></path>
                    <path d="M25.1867188,78.5097576 C11.6304688,78.5097576 0.6015625,67.7150303 0.6015625,54.4463636 L0.6015625,24.3415152 C0.6015625,11.0728485 11.6304688,0.278121212 25.1867188,0.278121212 C38.7429688,0.278121212 49.7710938,11.0728485 49.7710938,24.3415152 L49.6265625,54.4510909 C49.6273438,67.7158182 38.6632813,78.5097576 25.1867188,78.5097576 L25.1867188,78.5097576 Z M25.1867188,1.85387879 C12.4914063,1.85387879 2.1640625,11.9418788 2.1640625,24.3415152 L2.1640625,54.4471515 C2.1640625,66.8467879 12.4921875,76.9347879 25.1867188,76.9347879 C37.8015625,76.9347879 48.0648438,66.8467879 48.0648438,54.4471515 L48.209375,24.3375758 C48.209375,11.9410909 37.88125,1.85387879 25.1867188,1.85387879 L25.1867188,1.85387879 Z" id="Shape"></path>
                    <path d="M48.6609375,42.9330909 C46.7445312,42.9330909 45.1859375,40.449697 45.1859375,37.3966667 L45.1859375,24.3753939 C45.1859375,21.8573333 46.303125,19.5969091 47.8429687,18.999697 L48.4039062,20.4706667 C47.6078125,20.7795152 46.7484375,22.36 46.7484375,24.3753939 L46.7484375,37.3958788 C46.7484375,39.6263636 47.7765625,41.3565455 48.6609375,41.3565455 L48.6609375,42.9330909 L48.6609375,42.9330909 Z" id="Shape"></path>
                    <path d="M1.771875,42.9330909 L1.771875,41.3573333 C2.63671875,41.3573333 3.6421875,39.6271515 3.6421875,37.3966667 L3.6421875,24.3753939 C3.6421875,22.3119394 2.84453125,20.7692727 2.07265625,20.4706667 L2.63359375,18.999697 C4.14765625,19.5866667 5.20546875,21.7974545 5.20546875,24.3753939 L5.20546875,37.3958788 C5.20390625,40.5009091 3.69609375,42.9330909 1.771875,42.9330909 L1.771875,42.9330909 Z" id="Shape"></path>
                </g>
                <g id="watch" transform="translate(219.000000, 528.000000)" fill="#9E9E9E">
                    <path d="M30,15.9166667 L8.33333333,15.9166667 C5.33333333,15.9166667 2.91666667,18.3333333 2.91666667,21.3333333 L2.91666667,48.8333333 C2.91666667,51.8333333 5.33333333,54.25 8.33333333,54.25 L30,54.25 C33,54.25 35.4166667,51.8333333 35.4166667,48.8333333 L35.4166667,21.3333333 C35.4166667,18.3333333 33,15.9166667 30,15.9166667 L30,15.9166667 Z M34.5833333,48.8333333 C34.5833333,51.3333333 32.5,53.4166667 30,53.4166667 L8.33333333,53.4166667 C5.83333333,53.4166667 3.75,51.3333333 3.75,48.8333333 L3.75,21.3333333 C3.75,18.8333333 5.83333333,16.75 8.33333333,16.75 L30,16.75 C32.5,16.75 34.5833333,18.8333333 34.5833333,21.3333333 L34.5833333,48.8333333 L34.5833333,48.8333333 Z" id="Shape"></path>
                    <path d="M38.3333333,22.5833333 L37.9166667,22.5833333 L37.9166667,22.1666667 C37.9166667,16.6666667 36,14.5833333 33.4166667,13.8333333 C31.9166667,12.9166667 31.1666667,7.75 31.0833333,5.83333333 L31.0833333,5.5 C31.0833333,4.08333333 31,2.33333333 29,1.5 C25.75,0.166666667 19.5,0.25 19.1666667,0.25 C18.8333333,0.25 12.5833333,0.166666667 9.33333333,1.5 C7.33333333,2.33333333 7.25,4.08333333 7.25,5.5 L7.25,5.83333333 C7.16666667,8.33333333 6.41666667,13.25 5,14 C2.16666667,15.0833333 0.416666667,17.75 0.416666667,21.3333333 L0.416666667,48.8333333 C0.416666667,52.4166667 2.16666667,55.0833333 5,56.1666667 L5,56.1666667 C6.5,57 7.25,62.25 7.33333333,64.25 L7.33333333,64.5833333 C7.33333333,66 7.41666667,67.75 9.41666667,68.5833333 C12.1666667,69.75 17.25,69.8333333 18.75,69.8333333 L19.1666667,69.8333333 L19.5833333,69.8333333 C21.1666667,69.8333333 26.1666667,69.75 28.9166667,68.5833333 C30.9166667,67.75 31,66 31,64.5833333 L31,64.25 C31.0833333,61.8333333 31.8333333,57 33.25,56.1666667 C33.25,56.1666667 33.3333333,56.1666667 33.3333333,56.0833333 C36.0833333,54.9166667 37.75,52.3333333 37.75,48.8333333 L37.75,46.9166667 C38.3333333,46.8333333 38.75,46.3333333 38.75,45.75 L38.75,36.0833333 C38.75,35.5 38.3333333,35 37.75,34.9166667 L37.75,30.9166667 L38.3333333,30.9166667 C39.25,30.9166667 39.5833333,30.1666667 39.5833333,29.6666667 L39.5833333,23.8333333 C39.5833333,23 38.9166667,22.5833333 38.3333333,22.5833333 L38.3333333,22.5833333 Z M8.08333333,5.83333333 L8.08333333,5.5 C8.08333333,4.08333333 8.16666667,2.83333333 9.66666667,2.25 C12.75,1 19.0833333,1.08333333 19.1666667,1.08333333 L19.1666667,1.08333333 L19.1666667,1.08333333 C19.25,1.08333333 25.5833333,1 28.6666667,2.25 C30.1666667,2.83333333 30.25,4.08333333 30.25,5.5 L30.25,5.83333333 C30.25,5.91666667 30.5833333,11.0833333 32.0833333,13.5833333 C31.4166667,13.5 30.75,13.4166667 30,13.4166667 L8.33333333,13.4166667 C7.66666667,13.4166667 7,13.5 6.41666667,13.5833333 C7.83333333,11.0833333 8.08333333,5.91666667 8.08333333,5.83333333 L8.08333333,5.83333333 Z M30.4166667,64.1666667 L30.4166667,64.5 C30.4166667,65.9166667 30.3333333,67.1666667 28.8333333,67.75 C25.75,69 19.4166667,68.9166667 19.3333333,68.9166667 L19.3333333,68.9166667 L19.3333333,68.9166667 C19.25,68.9166667 12.9166667,69 9.83333333,67.75 C8.33333333,67.1666667 8.25,65.9166667 8.25,64.5 L8.25,64.1666667 C8.25,64.0833333 7.91666667,59 6.5,56.5833333 C7.08333333,56.6666667 7.75,56.75 8.41666667,56.75 L30.0833333,56.75 C30.8333333,56.75 31.5,56.6666667 32.0833333,56.5 C30.5833333,59 30.4166667,64.0833333 30.4166667,64.1666667 L30.4166667,64.1666667 Z M30,55.9166667 L8.33333333,55.9166667 C4,55.9166667 1.25,53.1666667 1.25,48.8333333 L1.25,21.3333333 C1.25,17 4,14.25 8.33333333,14.25 L30,14.25 C34.3333333,14.25 37.0833333,15.5833333 37.0833333,22.1666667 L37.0833333,22.8333333 C36.25,23.4166667 35.8333333,25.1666667 35.8333333,26.8333333 C35.8333333,28.5 36.25,30.1666667 37.0833333,30.75 L37.0833333,35.25 C36.8333333,35.4166667 36.75,35.75 36.75,36.1666667 L36.75,45.8333333 C36.75,46.25 36.9166667,46.5 37.0833333,46.75 L37.0833333,48.9166667 C37.0833333,53.1666667 34.3333333,55.9166667 30,55.9166667 L30,55.9166667 Z M38.0833333,36.0833333 L38.0833333,45.75 C38.0833333,45.9166667 37.9166667,46.0833333 37.75,46.0833333 C37.6666667,46.0833333 37.5833333,46.0833333 37.5833333,45.75 L37.5833333,36.0833333 C37.5833333,35.75 37.6666667,35.75 37.75,35.75 C37.9166667,35.75 38.0833333,35.9166667 38.0833333,36.0833333 L38.0833333,36.0833333 Z M38.3333333,30.0833333 L37.6666667,30.0833333 C37.3333333,30.0833333 36.6666667,28.8333333 36.6666667,26.75 C36.6666667,24.6666667 37.3333333,23.4166667 37.6666667,23.4166667 L38.3333333,23.4166667 C38.5833333,23.4166667 38.75,23.5833333 38.75,23.8333333 L38.75,24.3333333 L38.0833333,24.3333333 C37.8333333,24.3333333 37.6666667,24.5 37.6666667,24.75 C37.6666667,25 37.8333333,25.1666667 38.0833333,25.1666667 L38.75,25.1666667 L38.75,26.3333333 L38.0833333,26.3333333 C37.8333333,26.3333333 37.6666667,26.5 37.6666667,26.75 C37.6666667,27 37.8333333,27.1666667 38.0833333,27.1666667 L38.75,27.1666667 L38.75,28.3333333 L38.0833333,28.3333333 C37.8333333,28.3333333 37.6666667,28.5 37.6666667,28.75 C37.6666667,29 37.8333333,29.1666667 38.0833333,29.1666667 L38.75,29.1666667 L38.75,29.6666667 C38.75,29.8333333 38.6666667,30.0833333 38.3333333,30.0833333 L38.3333333,30.0833333 Z" id="Shape"></path>
                </g>
                <g id="notebook" transform="translate(150.000000, 656.000000)" fill="#BBBBBB">
                    <path d="M18.3847157,0 L1.65971314,0 L0.402511357,0 C0.243884555,0 0.113945578,0.698979592 0.113945578,1.55952381 L0.113945578,135.629252 C0.113945578,136.489796 0.243884555,137.188776 0.402511357,137.188776 L1.65971314,137.188776 L18.3847157,137.188776 L31.0512346,137.188776 L31.0512346,149.659864 L37.2393675,143.423469 L43.4258128,149.659864 L43.4258128,137.188776 L89.8325901,137.188776 C94.9592734,137.188776 99.1139456,133.001701 99.1139456,127.835034 L99.1139456,9.3537415 C99.1139456,4.18707483 94.9592734,0 89.8325901,0 L18.3847157,0 Z M17.1139456,135 L2.11394558,135 L2.11394558,1.99829932 L17.1139456,1.99829932 L17.1139456,135 L17.1139456,135 Z M96.7687075,128.667711 C96.7687075,132.160301 93.9727891,135.001701 90.5323129,135.001701 L18.8214286,135.001701 L18.8214286,2 L90.5340136,2 C93.9727891,2 96.7704082,4.84139997 96.7704082,8.33399008 L96.7704082,128.667711 L96.7687075,128.667711 Z" id="Shape"></path>
                    <path d="M81.1785714,18.707483 L31.292517,18.707483 L31.292517,37.414966 L81.1785714,37.414966 L81.1785714,18.707483 L81.1785714,18.707483 Z M79.6207483,35.8554422 L32.8520408,35.8554422 L32.8520408,20.2653061 L79.6207483,20.2653061 L79.6207483,35.8554422 L79.6207483,35.8554422 Z" id="Shape"></path>
                    <ellipse id="Oval" cx="81.2040816" cy="118.455782" rx="6.21088435" ry="6.21088435"></ellipse>
                </g>
                <g id="iphone" transform="translate(147.000000, 513.000000)" fill="#BBBBBB">
                    <path d="M42.625,0.625 L7.625,0.625 C3.875,0.625 0.75,3.75 0.75,7.5 L0.75,92.5 C0.75,96.25 3.875,99.375 7.625,99.375 L42.625,99.375 C46.375,99.375 49.5,96.25 49.5,92.5 L49.5,7.5 C49.5,3.75 46.375,0.625 42.625,0.625 L42.625,0.625 Z M48.25,92.5 C48.25,95.625 45.75,98.125 42.625,98.125 L7.625,98.125 C4.5,98.125 2,95.625 2,92.5 L2,7.5 C2,4.375 4.5,1.875 7.625,1.875 L42.625,1.875 C45.75,1.875 48.25,4.375 48.25,7.5 L48.25,92.5 L48.25,92.5 Z" id="Shape"></path>
                    <path d="M3.875,11.875 C3.5,11.875 3.25,12.125 3.25,12.5 L3.25,87.5 C3.25,87.875 3.5,88.125 3.875,88.125 L46.375,88.125 C46.75,88.125 47,87.875 47,87.5 L47,12.5 C47,12.125 46.75,11.875 46.375,11.875 L3.875,11.875 L3.875,11.875 Z M45.75,86.875 L4.5,86.875 L4.5,13.125 L45.75,13.125 L45.75,86.875 L45.75,86.875 Z" id="Shape"></path>
                    <path d="M25.125,90 C23.375,90 22,91.375 22,93.125 C22,94.875 23.375,96.25 25.125,96.25 C26.875,96.25 28.25,94.875 28.25,93.125 C28.25,91.375 26.75,90 25.125,90 L25.125,90 Z M25.125,95 C24.125,95 23.25,94.125 23.25,93.125 C23.25,92.125 24.125,91.25 25.125,91.25 C26.125,91.25 27,92.125 27,93.125 C27,94.125 26.125,95 25.125,95 L25.125,95 Z" id="Shape"></path>
                    <path d="M21.25,8.125 L28.75,8.125 C29.125,8.125 29.375,7.875 29.375,7.5 C29.375,7.125 29.125,6.875 28.75,6.875 L21.25,6.875 C20.875,6.875 20.625,7.125 20.625,7.5 C20.625,7.875 21,8.125 21.25,8.125 L21.25,8.125 Z" id="Shape"></path>
                </g>
                <path d="M262.5,15.5598777 L262.5,168.04668 L37.5,168.04668 L37.5,15.5598777 L262.5,15.5598777 L262.5,15.5598777 Z M265.625,12.4479022 L34.375,12.4479022 L34.375,171.158655 L265.625,171.158655 L265.625,12.4479022 L265.625,12.4479022 L265.625,12.4479022 Z M137.8125,41.0780772 C138.125,40.7668797 138.4375,40.4556821 138.125,40.1444846 L137.8125,39.833287 C137.8125,39.833287 137.1875,39.833287 136.875,40.1444846 L86.875,89.9360934 C86.5625,90.2472909 86.25,90.5584885 86.5625,90.869686 L86.875,91.1808836 C86.875,91.1808836 87.5,91.1808836 87.8125,90.869686 L137.8125,41.0780772 L137.8125,41.0780772 Z M129.0625,56.0155599 C129.375,55.7043623 129.6875,55.0819672 129.6875,55.0819672 L129.375,54.7707697 C129.375,54.7707697 128.75,54.7707697 128.4375,55.3931648 L65.9375,117.632676 C65.625,117.943873 65.3125,118.566268 65.3125,118.566268 L65.625,118.877466 C65.625,118.877466 66.25,118.877466 66.5625,118.255071 L129.0625,56.0155599 L129.0625,56.0155599 Z M118.75,72.5090303 C119.0625,72.1978327 119.0625,71.8866352 119.0625,71.8866352 L118.75,71.5754376 C118.75,71.5754376 118.4375,71.5754376 118.125,71.8866352 L80.9375,108.607947 C80.625,108.919144 80.625,109.230342 80.625,109.230342 L80.9375,109.541539 C80.9375,109.541539 81.25,109.541539 81.5625,109.230342 L118.75,72.5090303 L118.75,72.5090303 Z M278.125,177.382606 L278.125,9.6471242 C278.125,4.35676577 274.0625,0 268.75,0 L31.25,0 C25.9375,0 21.875,4.35676577 21.875,9.6471242 L21.875,177.382606 L0,177.382606 L0,180.494582 C0,185.78494 15.625,189.830508 25,189.830508 L275,189.830508 C284.375,189.830508 300,185.78494 300,180.494582 L300,177.382606 L278.125,177.382606 L278.125,177.382606 Z M28.125,9.6471242 C28.125,7.77993887 29.6875,6.2239511 31.25,6.2239511 L268.75,6.2239511 C270.3125,6.2239511 271.875,7.77993887 271.875,9.6471242 L271.875,177.382606 L175,177.382606 C175,177.382606 175,180.494582 171.875,180.494582 L128.125,180.494582 C125,180.494582 125,177.382606 125,177.382606 L28.125,177.382606 L28.125,9.6471242 L28.125,9.6471242 Z" id="macbook" fill="#D9D9D9"></path>
                <g id="ipad" transform="translate(204.000000, 415.000000) rotate(-270.000000) translate(-204.000000, -415.000000) translate(149.000000, 338.000000)" fill="#BBBBBB">
                    <path d="M102.735849,-5.68434189e-14 L7.26415094,-5.68434189e-14 C3.32075472,-5.68434189e-14 0,3.31274131 0,7.24662162 L0,145.967664 C0,149.901544 3.32075472,153.214286 7.26415094,153.214286 L102.735849,153.214286 C106.679245,153.214286 110,149.901544 110,145.967664 L110,7.24662162 C110,3.31274131 106.679245,-5.68434189e-14 102.735849,-5.68434189e-14 L102.735849,-5.68434189e-14 Z M107.924528,145.967664 C107.924528,148.866313 105.641509,151.143822 102.735849,151.143822 L7.26415094,151.143822 C4.35849057,151.143822 2.0754717,148.866313 2.0754717,145.967664 L2.0754717,7.24662162 C2.0754717,4.34797297 4.35849057,2.07046332 7.26415094,2.07046332 L102.735849,2.07046332 C105.641509,2.07046332 107.924528,4.34797297 107.924528,7.24662162 L107.924528,145.967664 L107.924528,145.967664 Z" id="Shape"></path>
                    <path d="M100.660377,14.4932432 L9.33962264,14.4932432 C8.71698113,14.4932432 8.30188679,14.9073359 8.30188679,15.5284749 L8.30188679,137.685811 C8.30188679,138.30695 8.71698113,138.721042 9.33962264,138.721042 L100.660377,138.721042 C101.283019,138.721042 101.698113,138.30695 101.698113,137.685811 L101.698113,15.5284749 C101.698113,14.9073359 101.075472,14.4932432 100.660377,14.4932432 L100.660377,14.4932432 Z M99.6226415,136.650579 L10.3773585,136.650579 L10.3773585,16.5637066 L99.6226415,16.5637066 L99.6226415,136.650579 L99.6226415,136.650579 Z" id="Shape"></path>
                    <ellipse id="Oval" cx="55" cy="8.28185328" rx="1.86792453" ry="1.86341699"></ellipse>
                    <path d="M55,140.377413 C52.509434,140.377413 50.4339623,142.447876 50.4339623,144.932432 C50.4339623,147.416988 52.509434,149.487452 55,149.487452 C57.490566,149.487452 59.5660377,147.416988 59.5660377,144.932432 C59.5660377,142.447876 57.490566,140.377413 55,140.377413 L55,140.377413 Z M55,147.416988 C53.5471698,147.416988 52.509434,146.17471 52.509434,144.932432 C52.509434,143.690154 53.754717,142.447876 55,142.447876 C56.245283,142.447876 57.490566,143.690154 57.490566,144.932432 C57.490566,146.17471 56.4528302,147.416988 55,147.416988 L55,147.416988 Z" id="Shape"></path>
                </g>
                <path d="M232.876404,239 L35.1235955,239 C34.5033708,239 34,239.500502 34,240.117191 L34,251.289102 C34,251.905791 34.5033708,252.406293 35.1235955,252.406293 L36.247191,252.406293 L36.247191,313.851801 C36.247191,314.468491 36.7505618,314.968992 37.3707865,314.968992 L230.629213,314.968992 C231.249438,314.968992 231.752809,314.468491 231.752809,313.851801 L231.752809,252.406293 L232.876404,252.406293 C233.496629,252.406293 234,251.905791 234,251.289102 L234,240.117191 C234,239.500502 233.496629,239 232.876404,239 L232.876404,239 Z M200.292135,242.351573 C200.292135,241.734884 200.795506,241.234382 201.41573,241.234382 L210.404494,241.234382 C211.024719,241.234382 211.52809,241.734884 211.52809,242.351573 L211.52809,244.585955 C211.52809,245.202645 211.024719,245.703146 210.404494,245.703146 L201.41573,245.703146 C200.795506,245.703146 200.292135,245.202645 200.292135,244.585955 L200.292135,242.351573 L200.292135,242.351573 Z M218.269663,271.398541 C218.269663,272.01523 217.766292,272.515732 217.146067,272.515732 L208.157303,272.515732 C207.537079,272.515732 207.033708,272.01523 207.033708,271.398541 L207.033708,262.461012 C207.033708,261.844323 207.537079,261.343821 208.157303,261.343821 L217.146067,261.343821 C217.766292,261.343821 218.269663,261.844323 218.269663,262.461012 L218.269663,271.398541 L218.269663,271.398541 Z M221.640449,274.750114 C222.260674,274.750114 222.764045,275.250616 222.764045,275.867305 L222.764045,284.804834 C222.764045,285.421523 222.260674,285.922025 221.640449,285.922025 L212.651685,285.922025 C212.031461,285.922025 211.52809,285.421523 211.52809,284.804834 L211.52809,275.867305 C211.52809,275.250616 212.031461,274.750114 212.651685,274.750114 L221.640449,274.750114 L221.640449,274.750114 Z M63.2134831,275.867305 C63.2134831,275.250616 63.7168539,274.750114 64.3370787,274.750114 L73.3258427,274.750114 C73.9460674,274.750114 74.4494382,275.250616 74.4494382,275.867305 L74.4494382,284.804834 C74.4494382,285.421523 73.9460674,285.922025 73.3258427,285.922025 L64.3370787,285.922025 C63.7168539,285.922025 63.2134831,285.421523 63.2134831,284.804834 L63.2134831,275.867305 L63.2134831,275.867305 Z M59.8426966,272.515732 C59.2224719,272.515732 58.7191011,272.01523 58.7191011,271.398541 L58.7191011,262.461012 C58.7191011,261.844323 59.2224719,261.343821 59.8426966,261.343821 L68.8314607,261.343821 C69.4516854,261.343821 69.9550562,261.844323 69.9550562,262.461012 L69.9550562,271.398541 C69.9550562,272.01523 69.4516854,272.515732 68.8314607,272.515732 L59.8426966,272.515732 L59.8426966,272.515732 Z M72.2022472,271.398541 L72.2022472,262.461012 C72.2022472,261.844323 72.705618,261.343821 73.3258427,261.343821 L82.3146067,261.343821 C82.9348315,261.343821 83.4382022,261.844323 83.4382022,262.461012 L83.4382022,271.398541 C83.4382022,272.01523 82.9348315,272.515732 82.3146067,272.515732 L73.3258427,272.515732 C72.705618,272.515732 72.2022472,272.017465 72.2022472,271.398541 L72.2022472,271.398541 Z M69.9550562,289.273598 C69.9550562,288.656908 70.458427,288.156407 71.0786517,288.156407 L80.0674157,288.156407 C80.6876404,288.156407 81.1910112,288.656908 81.1910112,289.273598 L81.1910112,298.211126 C81.1910112,298.827816 80.6876404,299.328317 80.0674157,299.328317 L71.0786517,299.328317 C70.458427,299.328317 69.9550562,298.827816 69.9550562,298.211126 L69.9550562,289.273598 L69.9550562,289.273598 Z M77.8202247,285.922025 C77.2,285.922025 76.6966292,285.421523 76.6966292,284.804834 L76.6966292,275.867305 C76.6966292,275.250616 77.2,274.750114 77.8202247,274.750114 L86.8089888,274.750114 C87.4292135,274.750114 87.9325843,275.250616 87.9325843,275.867305 L87.9325843,284.804834 C87.9325843,285.421523 87.4292135,285.922025 86.8089888,285.922025 L77.8202247,285.922025 L77.8202247,285.922025 Z M86.8089888,272.515732 C86.188764,272.515732 85.6853933,272.01523 85.6853933,271.398541 L85.6853933,262.461012 C85.6853933,261.844323 86.188764,261.343821 86.8089888,261.343821 L95.7977528,261.343821 C96.4179775,261.343821 96.9213483,261.844323 96.9213483,262.461012 L96.9213483,271.398541 C96.9213483,272.01523 96.4179775,272.515732 95.7977528,272.515732 L86.8089888,272.515732 L86.8089888,272.515732 Z M90.1797753,275.867305 C90.1797753,275.250616 90.6831461,274.750114 91.3033708,274.750114 L100.292135,274.750114 C100.91236,274.750114 101.41573,275.250616 101.41573,275.867305 L101.41573,284.804834 C101.41573,285.421523 100.91236,285.922025 100.292135,285.922025 L91.3033708,285.922025 C90.6831461,285.922025 90.1797753,285.421523 90.1797753,284.804834 L90.1797753,275.867305 L90.1797753,275.867305 Z M99.1685393,271.398541 L99.1685393,262.461012 C99.1685393,261.844323 99.6719101,261.343821 100.292135,261.343821 L109.280899,261.343821 C109.901124,261.343821 110.404494,261.844323 110.404494,262.461012 L110.404494,271.398541 C110.404494,272.01523 109.901124,272.515732 109.280899,272.515732 L100.292135,272.515732 C99.6719101,272.515732 99.1685393,272.017465 99.1685393,271.398541 L99.1685393,271.398541 Z M96.9213483,289.273598 C96.9213483,288.656908 97.4247191,288.156407 98.0449438,288.156407 L107.033708,288.156407 C107.653933,288.156407 108.157303,288.656908 108.157303,289.273598 L108.157303,298.211126 C108.157303,298.827816 107.653933,299.328317 107.033708,299.328317 L98.0449438,299.328317 C97.4247191,299.328317 96.9213483,298.827816 96.9213483,298.211126 L96.9213483,289.273598 L96.9213483,289.273598 Z M104.786517,285.922025 C104.166292,285.922025 103.662921,285.421523 103.662921,284.804834 L103.662921,275.867305 C103.662921,275.250616 104.166292,274.750114 104.786517,274.750114 L113.775281,274.750114 C114.395506,274.750114 114.898876,275.250616 114.898876,275.867305 L114.898876,284.804834 C114.898876,285.421523 114.395506,285.922025 113.775281,285.922025 L104.786517,285.922025 L104.786517,285.922025 Z M112.651685,271.398541 L112.651685,262.461012 C112.651685,261.844323 113.155056,261.343821 113.775281,261.343821 L122.764045,261.343821 C123.38427,261.343821 123.88764,261.844323 123.88764,262.461012 L123.88764,271.398541 C123.88764,272.01523 123.38427,272.515732 122.764045,272.515732 L113.775281,272.515732 C113.155056,272.515732 112.651685,272.017465 112.651685,271.398541 L112.651685,271.398541 Z M110.404494,289.273598 C110.404494,288.656908 110.907865,288.156407 111.52809,288.156407 L120.516854,288.156407 C121.137079,288.156407 121.640449,288.656908 121.640449,289.273598 L121.640449,298.211126 C121.640449,298.827816 121.137079,299.328317 120.516854,299.328317 L111.52809,299.328317 C110.907865,299.328317 110.404494,298.827816 110.404494,298.211126 L110.404494,289.273598 L110.404494,289.273598 Z M118.269663,285.922025 C117.649438,285.922025 117.146067,285.421523 117.146067,284.804834 L117.146067,275.867305 C117.146067,275.250616 117.649438,274.750114 118.269663,274.750114 L127.258427,274.750114 C127.878652,274.750114 128.382022,275.250616 128.382022,275.867305 L128.382022,284.804834 C128.382022,285.421523 127.878652,285.922025 127.258427,285.922025 L118.269663,285.922025 L118.269663,285.922025 Z M126.134831,271.398541 L126.134831,262.461012 C126.134831,261.844323 126.638202,261.343821 127.258427,261.343821 L136.247191,261.343821 C136.867416,261.343821 137.370787,261.844323 137.370787,262.461012 L137.370787,271.398541 C137.370787,272.01523 136.867416,272.515732 136.247191,272.515732 L127.258427,272.515732 C126.638202,272.515732 126.134831,272.017465 126.134831,271.398541 L126.134831,271.398541 Z M123.88764,289.273598 C123.88764,288.656908 124.391011,288.156407 125.011236,288.156407 L134,288.156407 C134.620225,288.156407 135.123596,288.656908 135.123596,289.273598 L135.123596,298.211126 C135.123596,298.827816 134.620225,299.328317 134,299.328317 L125.011236,299.328317 C124.391011,299.328317 123.88764,298.827816 123.88764,298.211126 L123.88764,289.273598 L123.88764,289.273598 Z M131.752809,285.922025 C131.132584,285.922025 130.629213,285.421523 130.629213,284.804834 L130.629213,275.867305 C130.629213,275.250616 131.132584,274.750114 131.752809,274.750114 L140.741573,274.750114 C141.361798,274.750114 141.865169,275.250616 141.865169,275.867305 L141.865169,284.804834 C141.865169,285.421523 141.361798,285.922025 140.741573,285.922025 L131.752809,285.922025 L131.752809,285.922025 Z M139.617978,271.398541 L139.617978,262.461012 C139.617978,261.844323 140.121348,261.343821 140.741573,261.343821 L149.730337,261.343821 C150.350562,261.343821 150.853933,261.844323 150.853933,262.461012 L150.853933,271.398541 C150.853933,272.01523 150.350562,272.515732 149.730337,272.515732 L140.741573,272.515732 C140.121348,272.515732 139.617978,272.017465 139.617978,271.398541 L139.617978,271.398541 Z M137.370787,289.273598 C137.370787,288.656908 137.874157,288.156407 138.494382,288.156407 L147.483146,288.156407 C148.103371,288.156407 148.606742,288.656908 148.606742,289.273598 L148.606742,298.211126 C148.606742,298.827816 148.103371,299.328317 147.483146,299.328317 L138.494382,299.328317 C137.874157,299.328317 137.370787,298.827816 137.370787,298.211126 L137.370787,289.273598 L137.370787,289.273598 Z M145.235955,285.922025 C144.61573,285.922025 144.11236,285.421523 144.11236,284.804834 L144.11236,275.867305 C144.11236,275.250616 144.61573,274.750114 145.235955,274.750114 L154.224719,274.750114 C154.844944,274.750114 155.348315,275.250616 155.348315,275.867305 L155.348315,284.804834 C155.348315,285.421523 154.844944,285.922025 154.224719,285.922025 L145.235955,285.922025 L145.235955,285.922025 Z M153.101124,271.398541 L153.101124,262.461012 C153.101124,261.844323 153.604494,261.343821 154.224719,261.343821 L163.213483,261.343821 C163.833708,261.343821 164.337079,261.844323 164.337079,262.461012 L164.337079,271.398541 C164.337079,272.01523 163.833708,272.515732 163.213483,272.515732 L154.224719,272.515732 C153.604494,272.515732 153.101124,272.017465 153.101124,271.398541 L153.101124,271.398541 Z M150.853933,289.273598 C150.853933,288.656908 151.357303,288.156407 151.977528,288.156407 L160.966292,288.156407 C161.586517,288.156407 162.089888,288.656908 162.089888,289.273598 L162.089888,298.211126 C162.089888,298.827816 161.586517,299.328317 160.966292,299.328317 L151.977528,299.328317 C151.357303,299.328317 150.853933,298.827816 150.853933,298.211126 L150.853933,289.273598 L150.853933,289.273598 Z M158.719101,285.922025 C158.098876,285.922025 157.595506,285.421523 157.595506,284.804834 L157.595506,275.867305 C157.595506,275.250616 158.098876,274.750114 158.719101,274.750114 L167.707865,274.750114 C168.32809,274.750114 168.831461,275.250616 168.831461,275.867305 L168.831461,284.804834 C168.831461,285.421523 168.32809,285.922025 167.707865,285.922025 L158.719101,285.922025 L158.719101,285.922025 Z M166.58427,271.398541 L166.58427,262.461012 C166.58427,261.844323 167.08764,261.343821 167.707865,261.343821 L176.696629,261.343821 C177.316854,261.343821 177.820225,261.844323 177.820225,262.461012 L177.820225,271.398541 C177.820225,272.01523 177.316854,272.515732 176.696629,272.515732 L167.707865,272.515732 C167.08764,272.515732 166.58427,272.017465 166.58427,271.398541 L166.58427,271.398541 Z M164.337079,289.273598 C164.337079,288.656908 164.840449,288.156407 165.460674,288.156407 L174.449438,288.156407 C175.069663,288.156407 175.573034,288.656908 175.573034,289.273598 L175.573034,298.211126 C175.573034,298.827816 175.069663,299.328317 174.449438,299.328317 L165.460674,299.328317 C164.840449,299.328317 164.337079,298.827816 164.337079,298.211126 L164.337079,289.273598 L164.337079,289.273598 Z M172.202247,285.922025 C171.582022,285.922025 171.078652,285.421523 171.078652,284.804834 L171.078652,275.867305 C171.078652,275.250616 171.582022,274.750114 172.202247,274.750114 L181.191011,274.750114 C181.811236,274.750114 182.314607,275.250616 182.314607,275.867305 L182.314607,284.804834 C182.314607,285.421523 181.811236,285.922025 181.191011,285.922025 L172.202247,285.922025 L172.202247,285.922025 Z M180.067416,271.398541 L180.067416,262.461012 C180.067416,261.844323 180.570787,261.343821 181.191011,261.343821 L190.179775,261.343821 C190.8,261.343821 191.303371,261.844323 191.303371,262.461012 L191.303371,271.398541 C191.303371,272.01523 190.8,272.515732 190.179775,272.515732 L181.191011,272.515732 C180.570787,272.515732 180.067416,272.017465 180.067416,271.398541 L180.067416,271.398541 Z M177.820225,289.273598 C177.820225,288.656908 178.323596,288.156407 178.94382,288.156407 L187.932584,288.156407 C188.552809,288.156407 189.05618,288.656908 189.05618,289.273598 L189.05618,298.211126 C189.05618,298.827816 188.552809,299.328317 187.932584,299.328317 L178.94382,299.328317 C178.323596,299.328317 177.820225,298.827816 177.820225,298.211126 L177.820225,289.273598 L177.820225,289.273598 Z M185.685393,285.922025 C185.065169,285.922025 184.561798,285.421523 184.561798,284.804834 L184.561798,275.867305 C184.561798,275.250616 185.065169,274.750114 185.685393,274.750114 L194.674157,274.750114 C195.294382,274.750114 195.797753,275.250616 195.797753,275.867305 L195.797753,284.804834 C195.797753,285.421523 195.294382,285.922025 194.674157,285.922025 L185.685393,285.922025 L185.685393,285.922025 Z M194.674157,272.515732 C194.053933,272.515732 193.550562,272.01523 193.550562,271.398541 L193.550562,262.461012 C193.550562,261.844323 194.053933,261.343821 194.674157,261.343821 L203.662921,261.343821 C204.283146,261.343821 204.786517,261.844323 204.786517,262.461012 L204.786517,271.398541 C204.786517,272.01523 204.283146,272.515732 203.662921,272.515732 L194.674157,272.515732 L194.674157,272.515732 Z M198.044944,275.867305 C198.044944,275.250616 198.548315,274.750114 199.168539,274.750114 L208.157303,274.750114 C208.777528,274.750114 209.280899,275.250616 209.280899,275.867305 L209.280899,284.804834 C209.280899,285.421523 208.777528,285.922025 208.157303,285.922025 L199.168539,285.922025 C198.548315,285.922025 198.044944,285.421523 198.044944,284.804834 L198.044944,275.867305 L198.044944,275.867305 Z M200.292135,249.05472 C200.292135,248.43803 200.795506,247.937528 201.41573,247.937528 L210.404494,247.937528 C211.024719,247.937528 211.52809,248.43803 211.52809,249.05472 L211.52809,257.992248 C211.52809,258.608938 211.024719,259.109439 210.404494,259.109439 L201.41573,259.109439 C200.795506,259.109439 200.292135,258.608938 200.292135,257.992248 L200.292135,249.05472 L200.292135,249.05472 Z M186.808989,242.351573 C186.808989,241.734884 187.31236,241.234382 187.932584,241.234382 L196.921348,241.234382 C197.541573,241.234382 198.044944,241.734884 198.044944,242.351573 L198.044944,244.585955 C198.044944,245.202645 197.541573,245.703146 196.921348,245.703146 L187.932584,245.703146 C187.31236,245.703146 186.808989,245.202645 186.808989,244.585955 L186.808989,242.351573 L186.808989,242.351573 Z M186.808989,249.05472 C186.808989,248.43803 187.31236,247.937528 187.932584,247.937528 L196.921348,247.937528 C197.541573,247.937528 198.044944,248.43803 198.044944,249.05472 L198.044944,257.992248 C198.044944,258.608938 197.541573,259.109439 196.921348,259.109439 L187.932584,259.109439 C187.31236,259.109439 186.808989,258.608938 186.808989,257.992248 L186.808989,249.05472 L186.808989,249.05472 Z M173.325843,242.351573 C173.325843,241.734884 173.829213,241.234382 174.449438,241.234382 L183.438202,241.234382 C184.058427,241.234382 184.561798,241.734884 184.561798,242.351573 L184.561798,244.585955 C184.561798,245.202645 184.058427,245.703146 183.438202,245.703146 L174.449438,245.703146 C173.829213,245.703146 173.325843,245.202645 173.325843,244.585955 L173.325843,242.351573 L173.325843,242.351573 Z M173.325843,249.05472 C173.325843,248.43803 173.829213,247.937528 174.449438,247.937528 L183.438202,247.937528 C184.058427,247.937528 184.561798,248.43803 184.561798,249.05472 L184.561798,257.992248 C184.561798,258.608938 184.058427,259.109439 183.438202,259.109439 L174.449438,259.109439 C173.829213,259.109439 173.325843,258.608938 173.325843,257.992248 L173.325843,249.05472 L173.325843,249.05472 Z M159.842697,242.351573 C159.842697,241.734884 160.346067,241.234382 160.966292,241.234382 L169.955056,241.234382 C170.575281,241.234382 171.078652,241.734884 171.078652,242.351573 L171.078652,244.585955 C171.078652,245.202645 170.575281,245.703146 169.955056,245.703146 L160.966292,245.703146 C160.346067,245.703146 159.842697,245.202645 159.842697,244.585955 L159.842697,242.351573 L159.842697,242.351573 Z M159.842697,249.05472 C159.842697,248.43803 160.346067,247.937528 160.966292,247.937528 L169.955056,247.937528 C170.575281,247.937528 171.078652,248.43803 171.078652,249.05472 L171.078652,257.992248 C171.078652,258.608938 170.575281,259.109439 169.955056,259.109439 L160.966292,259.109439 C160.346067,259.109439 159.842697,258.608938 159.842697,257.992248 L159.842697,249.05472 L159.842697,249.05472 Z M146.359551,242.351573 C146.359551,241.734884 146.862921,241.234382 147.483146,241.234382 L156.47191,241.234382 C157.092135,241.234382 157.595506,241.734884 157.595506,242.351573 L157.595506,244.585955 C157.595506,245.202645 157.092135,245.703146 156.47191,245.703146 L147.483146,245.703146 C146.862921,245.703146 146.359551,245.202645 146.359551,244.585955 L146.359551,242.351573 L146.359551,242.351573 Z M146.359551,249.05472 C146.359551,248.43803 146.862921,247.937528 147.483146,247.937528 L156.47191,247.937528 C157.092135,247.937528 157.595506,248.43803 157.595506,249.05472 L157.595506,257.992248 C157.595506,258.608938 157.092135,259.109439 156.47191,259.109439 L147.483146,259.109439 C146.862921,259.109439 146.359551,258.608938 146.359551,257.992248 L146.359551,249.05472 L146.359551,249.05472 Z M132.876404,242.351573 C132.876404,241.734884 133.379775,241.234382 134,241.234382 L142.988764,241.234382 C143.608989,241.234382 144.11236,241.734884 144.11236,242.351573 L144.11236,244.585955 C144.11236,245.202645 143.608989,245.703146 142.988764,245.703146 L134,245.703146 C133.379775,245.703146 132.876404,245.202645 132.876404,244.585955 L132.876404,242.351573 L132.876404,242.351573 Z M132.876404,249.05472 C132.876404,248.43803 133.379775,247.937528 134,247.937528 L142.988764,247.937528 C143.608989,247.937528 144.11236,248.43803 144.11236,249.05472 L144.11236,257.992248 C144.11236,258.608938 143.608989,259.109439 142.988764,259.109439 L134,259.109439 C133.379775,259.109439 132.876404,258.608938 132.876404,257.992248 L132.876404,249.05472 L132.876404,249.05472 Z M119.393258,242.351573 C119.393258,241.734884 119.896629,241.234382 120.516854,241.234382 L129.505618,241.234382 C130.125843,241.234382 130.629213,241.734884 130.629213,242.351573 L130.629213,244.585955 C130.629213,245.202645 130.125843,245.703146 129.505618,245.703146 L120.516854,245.703146 C119.896629,245.703146 119.393258,245.202645 119.393258,244.585955 L119.393258,242.351573 L119.393258,242.351573 Z M119.393258,249.05472 C119.393258,248.43803 119.896629,247.937528 120.516854,247.937528 L129.505618,247.937528 C130.125843,247.937528 130.629213,248.43803 130.629213,249.05472 L130.629213,257.992248 C130.629213,258.608938 130.125843,259.109439 129.505618,259.109439 L120.516854,259.109439 C119.896629,259.109439 119.393258,258.608938 119.393258,257.992248 L119.393258,249.05472 L119.393258,249.05472 Z M105.910112,242.351573 C105.910112,241.734884 106.413483,241.234382 107.033708,241.234382 L116.022472,241.234382 C116.642697,241.234382 117.146067,241.734884 117.146067,242.351573 L117.146067,244.585955 C117.146067,245.202645 116.642697,245.703146 116.022472,245.703146 L107.033708,245.703146 C106.413483,245.703146 105.910112,245.202645 105.910112,244.585955 L105.910112,242.351573 L105.910112,242.351573 Z M105.910112,249.05472 C105.910112,248.43803 106.413483,247.937528 107.033708,247.937528 L116.022472,247.937528 C116.642697,247.937528 117.146067,248.43803 117.146067,249.05472 L117.146067,257.992248 C117.146067,258.608938 116.642697,259.109439 116.022472,259.109439 L107.033708,259.109439 C106.413483,259.109439 105.910112,258.608938 105.910112,257.992248 L105.910112,249.05472 L105.910112,249.05472 Z M92.4269663,242.351573 C92.4269663,241.734884 92.9303371,241.234382 93.5505618,241.234382 L102.539326,241.234382 C103.159551,241.234382 103.662921,241.734884 103.662921,242.351573 L103.662921,244.585955 C103.662921,245.202645 103.159551,245.703146 102.539326,245.703146 L93.5505618,245.703146 C92.9303371,245.703146 92.4269663,245.202645 92.4269663,244.585955 L92.4269663,242.351573 L92.4269663,242.351573 Z M92.4269663,249.05472 C92.4269663,248.43803 92.9303371,247.937528 93.5505618,247.937528 L102.539326,247.937528 C103.159551,247.937528 103.662921,248.43803 103.662921,249.05472 L103.662921,257.992248 C103.662921,258.608938 103.159551,259.109439 102.539326,259.109439 L93.5505618,259.109439 C92.9303371,259.109439 92.4269663,258.608938 92.4269663,257.992248 L92.4269663,249.05472 L92.4269663,249.05472 Z M78.9438202,242.351573 C78.9438202,241.734884 79.447191,241.234382 80.0674157,241.234382 L89.0561798,241.234382 C89.6764045,241.234382 90.1797753,241.734884 90.1797753,242.351573 L90.1797753,244.585955 C90.1797753,245.202645 89.6764045,245.703146 89.0561798,245.703146 L80.0674157,245.703146 C79.447191,245.703146 78.9438202,245.202645 78.9438202,244.585955 L78.9438202,242.351573 L78.9438202,242.351573 Z M78.9438202,249.05472 C78.9438202,248.43803 79.447191,247.937528 80.0674157,247.937528 L89.0561798,247.937528 C89.6764045,247.937528 90.1797753,248.43803 90.1797753,249.05472 L90.1797753,257.992248 C90.1797753,258.608938 89.6764045,259.109439 89.0561798,259.109439 L80.0674157,259.109439 C79.447191,259.109439 78.9438202,258.608938 78.9438202,257.992248 L78.9438202,249.05472 L78.9438202,249.05472 Z M65.4606742,242.351573 C65.4606742,241.734884 65.9640449,241.234382 66.5842697,241.234382 L75.5730337,241.234382 C76.1932584,241.234382 76.6966292,241.734884 76.6966292,242.351573 L76.6966292,244.585955 C76.6966292,245.202645 76.1932584,245.703146 75.5730337,245.703146 L66.5842697,245.703146 C65.9640449,245.703146 65.4606742,245.202645 65.4606742,244.585955 L65.4606742,242.351573 L65.4606742,242.351573 Z M65.4606742,249.05472 C65.4606742,248.43803 65.9640449,247.937528 66.5842697,247.937528 L75.5730337,247.937528 C76.1932584,247.937528 76.6966292,248.43803 76.6966292,249.05472 L76.6966292,257.992248 C76.6966292,258.608938 76.1932584,259.109439 75.5730337,259.109439 L66.5842697,259.109439 C65.9640449,259.109439 65.4606742,258.608938 65.4606742,257.992248 L65.4606742,249.05472 L65.4606742,249.05472 Z M51.9775281,242.351573 C51.9775281,241.734884 52.4808989,241.234382 53.1011236,241.234382 L62.0898876,241.234382 C62.7101124,241.234382 63.2134831,241.734884 63.2134831,242.351573 L63.2134831,244.585955 C63.2134831,245.202645 62.7101124,245.703146 62.0898876,245.703146 L53.1011236,245.703146 C52.4808989,245.703146 51.9775281,245.202645 51.9775281,244.585955 L51.9775281,242.351573 L51.9775281,242.351573 Z M51.9775281,249.05472 C51.9775281,248.43803 52.4808989,247.937528 53.1011236,247.937528 L62.0898876,247.937528 C62.7101124,247.937528 63.2134831,248.43803 63.2134831,249.05472 L63.2134831,257.992248 C63.2134831,258.608938 62.7101124,259.109439 62.0898876,259.109439 L53.1011236,259.109439 C52.4808989,259.109439 51.9775281,258.608938 51.9775281,257.992248 L51.9775281,249.05472 L51.9775281,249.05472 Z M38.494382,242.351573 C38.494382,241.734884 38.9977528,241.234382 39.6179775,241.234382 L48.6067416,241.234382 C49.2269663,241.234382 49.7303371,241.734884 49.7303371,242.351573 L49.7303371,244.585955 C49.7303371,245.202645 49.2269663,245.703146 48.6067416,245.703146 L39.6179775,245.703146 C38.9977528,245.703146 38.494382,245.202645 38.494382,244.585955 L38.494382,242.351573 L38.494382,242.351573 Z M38.494382,249.05472 C38.494382,248.43803 38.9977528,247.937528 39.6179775,247.937528 L48.6067416,247.937528 C49.2269663,247.937528 49.7303371,248.43803 49.7303371,249.05472 L49.7303371,257.992248 C49.7303371,258.608938 49.2269663,259.109439 48.6067416,259.109439 L39.6179775,259.109439 C38.9977528,259.109439 38.494382,258.608938 38.494382,257.992248 L38.494382,249.05472 L38.494382,249.05472 Z M38.494382,262.461012 C38.494382,261.844323 38.9977528,261.343821 39.6179775,261.343821 L55.3483146,261.343821 C55.9685393,261.343821 56.4719101,261.844323 56.4719101,262.461012 L56.4719101,271.398541 C56.4719101,272.01523 55.9685393,272.515732 55.3483146,272.515732 L39.6179775,272.515732 C38.9977528,272.515732 38.494382,272.01523 38.494382,271.398541 L38.494382,262.461012 L38.494382,262.461012 Z M38.494382,275.867305 C38.494382,275.250616 38.9977528,274.750114 39.6179775,274.750114 L59.8426966,274.750114 C60.4629213,274.750114 60.9662921,275.250616 60.9662921,275.867305 L60.9662921,284.804834 C60.9662921,285.421523 60.4629213,285.922025 59.8426966,285.922025 L39.6179775,285.922025 C38.9977528,285.922025 38.494382,285.421523 38.494382,284.804834 L38.494382,275.867305 L38.494382,275.867305 Z M38.494382,289.273598 C38.494382,288.656908 38.9977528,288.156407 39.6179775,288.156407 L53.1011236,288.156407 C53.7213483,288.156407 54.2247191,288.656908 54.2247191,289.273598 L54.2247191,298.211126 C54.2247191,298.827816 53.7213483,299.328317 53.1011236,299.328317 L39.6179775,299.328317 C38.9977528,299.328317 38.494382,298.827816 38.494382,298.211126 L38.494382,289.273598 L38.494382,289.273598 Z M56.4719101,311.617419 C56.4719101,312.234109 55.9685393,312.73461 55.3483146,312.73461 L39.6179775,312.73461 C38.9977528,312.73461 38.494382,312.234109 38.494382,311.617419 L38.494382,302.679891 C38.494382,302.063201 38.9977528,301.562699 39.6179775,301.562699 L55.3483146,301.562699 C55.9685393,301.562699 56.4719101,302.063201 56.4719101,302.679891 L56.4719101,311.617419 L56.4719101,311.617419 Z M56.4719101,298.211126 L56.4719101,289.273598 C56.4719101,288.656908 56.9752809,288.156407 57.5955056,288.156407 L66.5842697,288.156407 C67.2044944,288.156407 67.7078652,288.656908 67.7078652,289.273598 L67.7078652,298.211126 C67.7078652,298.827816 67.2044944,299.328317 66.5842697,299.328317 L57.5955056,299.328317 C56.9752809,299.328317 56.4719101,298.83005 56.4719101,298.211126 L56.4719101,298.211126 Z M74.458427,311.617419 C74.458427,312.234109 73.9550562,312.73461 73.3348315,312.73461 L59.8426966,312.73461 C59.2224719,312.73461 58.7191011,312.234109 58.7191011,311.617419 L58.7191011,302.679891 C58.7191011,302.063201 59.2224719,301.562699 59.8426966,301.562699 L73.3348315,301.562699 C73.9550562,301.562699 74.458427,302.063201 74.458427,302.679891 L74.458427,311.617419 L74.458427,311.617419 Z M94.6741573,311.617419 C94.6741573,312.234109 94.1707865,312.73461 93.5505618,312.73461 L77.8202247,312.73461 C77.2,312.73461 76.6966292,312.234109 76.6966292,311.617419 L76.6966292,302.679891 C76.6966292,302.063201 77.2,301.562699 77.8202247,301.562699 L93.5505618,301.562699 C94.1707865,301.562699 94.6741573,302.063201 94.6741573,302.679891 L94.6741573,311.617419 L94.6741573,311.617419 Z M94.6741573,298.211126 C94.6741573,298.827816 94.1707865,299.328317 93.5505618,299.328317 L84.5617978,299.328317 C83.941573,299.328317 83.4382022,298.827816 83.4382022,298.211126 L83.4382022,289.273598 C83.4382022,288.656908 83.941573,288.156407 84.5617978,288.156407 L93.5505618,288.156407 C94.1707865,288.156407 94.6741573,288.656908 94.6741573,289.273598 L94.6741573,298.211126 L94.6741573,298.211126 Z M171.078652,311.617419 C171.078652,312.234109 170.575281,312.73461 169.955056,312.73461 L98.0449438,312.73461 C97.4247191,312.73461 96.9213483,312.234109 96.9213483,311.617419 L96.9213483,302.679891 C96.9213483,302.063201 97.4247191,301.562699 98.0449438,301.562699 L169.955056,301.562699 C170.575281,301.562699 171.078652,302.063201 171.078652,302.679891 L171.078652,311.617419 L171.078652,311.617419 Z M191.303371,311.617419 C191.303371,312.234109 190.8,312.73461 190.179775,312.73461 L174.449438,312.73461 C173.829213,312.73461 173.325843,312.234109 173.325843,311.617419 L173.325843,302.679891 C173.325843,302.063201 173.829213,301.562699 174.449438,301.562699 L190.179775,301.562699 C190.8,301.562699 191.303371,302.063201 191.303371,302.679891 L191.303371,311.617419 L191.303371,311.617419 Z M191.303371,298.211126 L191.303371,289.273598 C191.303371,288.656908 191.806742,288.156407 192.426966,288.156407 L201.41573,288.156407 C202.035955,288.156407 202.539326,288.656908 202.539326,289.273598 L202.539326,298.211126 C202.539326,298.827816 202.035955,299.328317 201.41573,299.328317 L192.426966,299.328317 C191.806742,299.328317 191.303371,298.83005 191.303371,298.211126 L191.303371,298.211126 Z M209.280899,311.617419 C209.280899,312.234109 208.777528,312.73461 208.157303,312.73461 L194.665169,312.73461 C194.044944,312.73461 193.541573,312.234109 193.541573,311.617419 L193.541573,302.679891 C193.541573,302.063201 194.044944,301.562699 194.665169,301.562699 L208.157303,301.562699 C208.777528,301.562699 209.280899,302.063201 209.280899,302.679891 L209.280899,311.617419 L209.280899,311.617419 Z M229.505618,311.617419 C229.505618,312.234109 229.002247,312.73461 228.382022,312.73461 L212.651685,312.73461 C212.031461,312.73461 211.52809,312.234109 211.52809,311.617419 L211.52809,302.679891 C211.52809,302.063201 212.031461,301.562699 212.651685,301.562699 L228.382022,301.562699 C229.002247,301.562699 229.505618,302.063201 229.505618,302.679891 L229.505618,311.617419 L229.505618,311.617419 Z M229.505618,298.211126 C229.505618,298.827816 229.002247,299.328317 228.382022,299.328317 L205.910112,299.328317 C205.289888,299.328317 204.786517,298.827816 204.786517,298.211126 L204.786517,289.273598 C204.786517,288.656908 205.289888,288.156407 205.910112,288.156407 L228.382022,288.156407 C229.002247,288.156407 229.505618,288.656908 229.505618,289.273598 L229.505618,298.211126 L229.505618,298.211126 Z M229.505618,284.804834 C229.505618,285.421523 229.002247,285.922025 228.382022,285.922025 L226.134831,285.922025 C225.514607,285.922025 225.011236,285.421523 225.011236,284.804834 L225.011236,273.632923 C225.011236,272.515732 223.88764,272.515732 223.88764,272.515732 L221.640449,272.515732 C221.020225,272.515732 220.516854,272.01523 220.516854,271.398541 L220.516854,262.461012 C220.516854,261.844323 221.020225,261.343821 221.640449,261.343821 L226.134831,261.343821 L228.382022,261.343821 C229.002247,261.343821 229.505618,261.844323 229.505618,262.461012 L229.505618,284.804834 L229.505618,284.804834 Z M229.505618,257.992248 C229.505618,258.608938 229.002247,259.109439 228.382022,259.109439 L214.898876,259.109439 C214.278652,259.109439 213.775281,258.608938 213.775281,257.992248 L213.775281,249.05472 C213.775281,248.43803 214.278652,247.937528 214.898876,247.937528 L228.382022,247.937528 C229.002247,247.937528 229.505618,248.43803 229.505618,249.05472 L229.505618,257.992248 L229.505618,257.992248 Z M229.505618,244.585955 C229.505618,245.202645 229.002247,245.703146 228.382022,245.703146 L214.898876,245.703146 C214.278652,245.703146 213.775281,245.202645 213.775281,244.585955 L213.775281,242.351573 C213.775281,241.734884 214.278652,241.234382 214.898876,241.234382 L228.382022,241.234382 C229.002247,241.234382 229.505618,241.734884 229.505618,242.351573 L229.505618,244.585955 L229.505618,244.585955 Z" id="keyboard" fill="#BBBBBB"></path>
            </g>
        </g>
    </g>
</svg>