<svg height="960" viewBox="0 0 200 960" width="200" xmlns="http://www.w3.org/2000/svg"><g fill="none" fill-rule="evenodd" transform="translate(-100 130)"><g fill="#bbb" transform="translate(250 238)"><path d="m25.2296875 14.0124242c-1.175 0-2.1273438-.9604242-2.1273438-2.1453939 0-1.1857576.9515625-2.14381818 2.1273438-2.14381818 1.1742187 0 2.1273437.95884848 2.1273437 2.14381818s-.953125 2.1453939-2.1273437 2.1453939z"/><path d="m25.1867188 78.5097576c-13.55625 0-24.5851563-10.7947273-24.5851563-24.063394v-30.1048484c0-13.2686667 11.0289063-24.06339399 24.5851563-24.06339399s24.584375 10.79472729 24.584375 24.06339399l-.1445313 30.1095757c.0007813 13.2647273-10.9632812 24.0586667-24.4398437 24.0586667zm0-76.65587881c-12.6953125 0-23.0226563 10.08800001-23.0226563 22.48763641v30.1056363c0 12.3996364 10.328125 22.4876364 23.0226563 22.4876364 12.6148437 0 22.878125-10.088 22.878125-22.4876364l.1445312-30.1095757c0-12.3964849-10.328125-22.48369701-23.0226562-22.48369701z"/><path d="m48.6609375 42.9330909c-1.9164063 0-3.475-2.4833939-3.475-5.5364242v-13.0212728c0-2.5180606 1.1171875-4.7784848 2.6570312-5.3756969l.5609375 1.4709697c-.7960937.3088485-1.6554687 1.8893333-1.6554687 3.9047272v13.0204849c0 2.2304848 1.028125 3.9606667 1.9125 3.9606667z"/><path d="m1.771875 42.9330909v-1.5757576c.86484375 0 1.8703125-1.7301818 1.8703125-3.9606666v-13.0212728c0-2.0634545-.79765625-3.6061212-1.56953125-3.9047272l.5609375-1.4709697c1.5140625.5869697 2.571875 2.7977575 2.571875 5.3756969v13.0204849c-.0015625 3.1050303-1.509375 5.5372121-3.43359375 5.5372121z"/></g><g fill="#9e9e9e" transform="translate(219 528)"><path d="m30 15.9166667h-21.66666667c-3 0-5.41666666 2.4166666-5.41666666 5.4166666v27.5c0 3 2.41666666 5.4166667 5.41666666 5.4166667h21.66666667c3 0 5.4166667-2.4166667 5.4166667-5.4166667v-27.5c0-3-2.4166667-5.4166666-5.4166667-5.4166666zm4.5833333 32.9166666c0 2.5-2.0833333 4.5833334-4.5833333 4.5833334h-21.66666667c-2.5 0-4.58333333-2.0833334-4.58333333-4.5833334v-27.5c0-2.5 2.08333333-4.5833333 4.58333333-4.5833333h21.66666667c2.5 0 4.5833333 2.0833333 4.5833333 4.5833333z"/><path d="m38.3333333 22.5833333h-.4166666v-.4166666c0-5.5-1.9166667-7.5833334-4.5-8.3333334-1.5-.9166666-2.25-6.0833333-2.3333334-7.99999997v-.33333333c0-1.41666667-.0833333-3.16666667-2.0833333-4-3.25-1.33333333-9.5-1.25-9.8333333-1.25-.3333334 0-6.5833334-.08333333-9.83333337 1.25-2 .83333333-2.08333333 2.58333333-2.08333333 4v.33333333c-.08333333 2.5-.83333333 7.41666667-2.25 8.16666667-2.83333333 1.0833333-4.58333333 3.75-4.58333333 7.3333333v27.5c0 3.5833334 1.75 6.25 4.58333333 7.3333334 1.5.8333333 2.25 6.0833333 2.33333333 8.0833333v.3333333c0 1.4166667.08333334 3.1666667 2.08333334 4 2.75000003 1.1666667 7.83333333 1.25 9.33333333 1.25h.4166667.4166666c1.5833334 0 6.5833334-.0833333 9.3333334-1.25 2-.8333333 2.0833333-2.5833333 2.0833333-4v-.3333333c.0833333-2.4166667.8333333-7.25 2.25-8.0833333 0 0 .0833333 0 .0833333-.0833334 2.75-1.1666666 4.4166667-3.75 4.4166667-7.25v-1.9166666c.5833333-.0833334 1-.5833334 1-1.1666667v-9.6666667c0-.5833333-.4166667-1.0833333-1-1.1666666v-4h.5833333c.9166667 0 1.25-.75 1.25-1.25v-5.8333334c0-.8333333-.6666666-1.25-1.25-1.25zm-30.24999997-16.74999997v-.33333333c0-1.41666667.08333334-2.66666667 1.58333334-3.25 3.08333333-1.25 9.41666663-1.16666667 9.50000003-1.16666667.0833333 0 6.4166666-.08333333 9.5 1.16666667 1.5.58333333 1.5833333 1.83333333 1.5833333 3.25v.33333333c0 .08333334.3333333 5.24999997 1.8333333 7.74999997-.6666666-.0833333-1.3333333-.1666666-2.0833333-.1666666h-21.66666667c-.66666666 0-1.33333333.0833333-1.91666666.1666666 1.41666666-2.5 1.66666666-7.66666663 1.66666666-7.74999997zm22.33333337 58.33333337v.3333333c0 1.4166667-.0833334 2.6666667-1.5833334 3.25-3.0833333 1.25-9.4166666 1.1666667-9.5 1.1666667-.0833333 0-6.4166666.0833333-9.49999997-1.1666667-1.5-.5833333-1.58333333-1.8333333-1.58333333-3.25v-.3333333c0-.0833334-.33333333-5.1666667-1.75-7.5833334.58333333.0833334 1.25.1666667 1.91666667.1666667h21.66666663c.75 0 1.4166667-.0833333 2-.25-1.5 2.5-1.6666666 7.5833333-1.6666666 7.6666667zm-.4166667-8.25h-21.66666667c-4.33333333 0-7.08333333-2.75-7.08333333-7.0833334v-27.5c0-4.3333333 2.75-7.0833333 7.08333333-7.0833333h21.66666667c4.3333333 0 7.0833333 1.3333333 7.0833333 7.9166667v.6666666c-.8333333.5833334-1.25 2.3333334-1.25 4 0 1.6666667.4166667 3.3333334 1.25 3.9166667v4.5c-.25.1666667-.3333333.5-.3333333.9166667v9.6666666c0 .4166667.1666667.6666667.3333333.9166667v2.1666667c0 4.25-2.75 7-7.0833333 7zm8.0833333-19.8333334v9.6666667c0 .1666667-.1666666.3333333-.3333333.3333333-.0833333 0-.1666667 0-.1666667-.3333333v-9.6666667c0-.3333333.0833334-.3333333.1666667-.3333333.1666667 0 .3333333.1666667.3333333.3333333zm.25-6h-.6666666c-.3333334 0-1-1.25-1-3.3333333s.6666666-3.3333333 1-3.3333333h.6666666c.25 0 .4166667.1666666.4166667.4166666v.5h-.6666667c-.25 0-.4166666.1666667-.4166666.4166667s.1666666.4166667.4166666.4166667h.6666667v1.1666666h-.6666667c-.25 0-.4166666.1666667-.4166666.4166667s.1666666.4166667.4166666.4166667h.6666667v1.1666666h-.6666667c-.25 0-.4166666.1666667-.4166666.4166667s.1666666.4166667.4166666.4166667h.6666667v.5c0 .1666666-.0833333.4166666-.4166667.4166666z"/></g><g fill="#bbb" transform="translate(150 656)"><path d="m18.3847157 0h-16.72500256-1.25720178c-.1586268 0-.28856578.69897959-.28856578 1.55952381v134.06972819c0 .860544.12993898 1.559524.28856578 1.559524h1.25720178 16.72500256 12.6665189v12.471088l6.1881329-6.236395 6.1864453 6.236395v-12.471088h46.4067773c5.1266833 0 9.2813555-4.187075 9.2813555-9.353742v-118.4812925c0-5.16666667-4.1546722-9.3537415-9.2813555-9.3537415zm-1.2707701 135h-15.00000002v-133.00170068h15.00000002zm79.6547619-6.332289c0 3.49259-2.7959184 6.33399-6.2363946 6.33399h-71.7108843v-133.001701h71.712585c3.4387755 0 6.2363946 2.84139997 6.2363946 6.33399008v120.33372092z"/><path d="m81.1785714 18.707483h-49.8860544v18.707483h49.8860544zm-1.5578231 17.1479592h-46.7687075v-15.5901361h46.7687075z"/><ellipse cx="81.204082" cy="118.455782" rx="6.210884" ry="6.210884"/></g><g fill="#bbb" transform="translate(147 513)"><path d="m42.625.625h-35c-3.75 0-6.875 3.125-6.875 6.875v85c0 3.75 3.125 6.875 6.875 6.875h35c3.75 0 6.875-3.125 6.875-6.875v-85c0-3.75-3.125-6.875-6.875-6.875zm5.625 91.875c0 3.125-2.5 5.625-5.625 5.625h-35c-3.125 0-5.625-2.5-5.625-5.625v-85c0-3.125 2.5-5.625 5.625-5.625h35c3.125 0 5.625 2.5 5.625 5.625z"/><path d="m3.875 11.875c-.375 0-.625.25-.625.625v75c0 .375.25.625.625.625h42.5c.375 0 .625-.25.625-.625v-75c0-.375-.25-.625-.625-.625zm41.875 75h-41.25v-73.75h41.25z"/><path d="m25.125 90c-1.75 0-3.125 1.375-3.125 3.125s1.375 3.125 3.125 3.125 3.125-1.375 3.125-3.125-1.5-3.125-3.125-3.125zm0 5c-1 0-1.875-.875-1.875-1.875s.875-1.875 1.875-1.875 1.875.875 1.875 1.875-.875 1.875-1.875 1.875z"/><path d="m21.25 8.125h7.5c.375 0 .625-.25.625-.625s-.25-.625-.625-.625h-7.5c-.375 0-.625.25-.625.625s.375.625.625.625z"/></g><path d="m262.5 15.5598777v152.4868023h-225v-152.4868023zm3.125-3.1119755h-231.25v158.7107528h231.25zm-127.8125 28.630175c.3125-.3111975.625-.6223951.3125-.9335926l-.3125-.3111976s-.625 0-.9375.3111976l-50 49.7916088c-.3125.3111975-.625.6223951-.3125.9335926l.3125.3111976s.625 0 .9375-.3111976zm-8.75 14.9374827c.3125-.3111976.625-.9335927.625-.9335927l-.3125-.3111975s-.625 0-.9375.6223951l-62.5 62.2395112c-.3125.311197-.625.933592-.625.933592l.3125.311198s.625 0 .9375-.622395zm-10.3125 16.4934704c.3125-.3111976.3125-.6223951.3125-.6223951l-.3125-.3111976s-.3125 0-.625.3111976l-37.1875 36.7213118c-.3125.311197-.3125.622395-.3125.622395l.3125.311197s.3125 0 .625-.311197zm159.375 104.8735757v-167.7354818c0-5.29035843-4.0625-9.6471242-9.375-9.6471242h-237.5c-5.3125 0-9.375 4.35676577-9.375 9.6471242v167.7354818h-21.875v3.111976c0 5.290358 15.625 9.335926 25 9.335926h250c9.375 0 25-4.045568 25-9.335926v-3.111976zm-250-167.7354818c0-1.86718533 1.5625-3.4231731 3.125-3.4231731h237.5c1.5625 0 3.125 1.55598777 3.125 3.4231731v167.7354818h-96.875s0 3.111976-3.125 3.111976h-43.75c-3.125 0-3.125-3.111976-3.125-3.111976h-96.875z" fill="#d9d9d9"/><g fill="#bbb"><g transform="matrix(0 1 -1 0 281 360)"><path d="m102.735849 0h-95.47169806c-3.94339622 0-7.26415094 3.31274131-7.26415094 7.24662162v138.72104238c0 3.93388 3.32075472 7.246622 7.26415094 7.246622h95.47169806c3.943396 0 7.264151-3.312742 7.264151-7.246622v-138.72104238c0-3.93388031-3.320755-7.24662162-7.264151-7.24662162zm5.188679 145.967664c0 2.898649-2.283019 5.176158-5.188679 5.176158h-95.47169806c-2.90566037 0-5.18867924-2.277509-5.18867924-5.176158v-138.72104238c0-2.89864865 2.28301887-5.1761583 5.18867924-5.1761583h95.47169806c2.90566 0 5.188679 2.27750965 5.188679 5.1761583z"/><path d="m100.660377 14.4932432h-91.32075436c-.62264151 0-1.03773585.4140927-1.03773585 1.0352317v122.1573361c0 .621139.41509434 1.035231 1.03773585 1.035231h91.32075436c.622642 0 1.037736-.414092 1.037736-1.035231v-122.1573361c0-.621139-.622641-1.0352317-1.037736-1.0352317zm-1.0377355 122.1573358h-89.245283v-120.0868724h89.245283z"/><ellipse cx="55" cy="8.281853" rx="1.867925" ry="1.863417"/><path d="m55 140.377413c-2.490566 0-4.5660377 2.070463-4.5660377 4.555019s2.0754717 4.55502 4.5660377 4.55502 4.5660377-2.070464 4.5660377-4.55502-2.0754717-4.555019-4.5660377-4.555019zm0 7.039575c-1.4528302 0-2.490566-1.242278-2.490566-2.484556s1.245283-2.484556 2.490566-2.484556 2.490566 1.242278 2.490566 2.484556-1.0377358 2.484556-2.490566 2.484556z"/></g><path d="m232.876404 239h-197.7528085c-.6202247 0-1.1235955.500502-1.1235955 1.117191v11.171911c0 .616689.5033708 1.117191 1.1235955 1.117191h1.1235955v61.445508c0 .61669.5033708 1.117191 1.1235955 1.117191h193.2584265c.620225 0 1.123596-.500501 1.123596-1.117191v-61.445508h1.123595c.620225 0 1.123596-.500502 1.123596-1.117191v-11.171911c0-.616689-.503371-1.117191-1.123596-1.117191zm-32.584269 3.351573c0-.616689.503371-1.117191 1.123595-1.117191h8.988764c.620225 0 1.123596.500502 1.123596 1.117191v2.234382c0 .61669-.503371 1.117191-1.123596 1.117191h-8.988764c-.620224 0-1.123595-.500501-1.123595-1.117191zm17.977528 29.046968c0 .616689-.503371 1.117191-1.123596 1.117191h-8.988764c-.620224 0-1.123595-.500502-1.123595-1.117191v-8.937529c0-.616689.503371-1.117191 1.123595-1.117191h8.988764c.620225 0 1.123596.500502 1.123596 1.117191zm3.370786 3.351573c.620225 0 1.123596.500502 1.123596 1.117191v8.937529c0 .616689-.503371 1.117191-1.123596 1.117191h-8.988764c-.620224 0-1.123595-.500502-1.123595-1.117191v-8.937529c0-.616689.503371-1.117191 1.123595-1.117191zm-158.4269659 1.117191c0-.616689.5033708-1.117191 1.1235956-1.117191h8.988764c.6202247 0 1.1235955.500502 1.1235955 1.117191v8.937529c0 .616689-.5033708 1.117191-1.1235955 1.117191h-8.988764c-.6202248 0-1.1235956-.500502-1.1235956-1.117191zm-3.3707865-3.351573c-.6202247 0-1.1235955-.500502-1.1235955-1.117191v-8.937529c0-.616689.5033708-1.117191 1.1235955-1.117191h8.9887641c.6202247 0 1.1235955.500502 1.1235955 1.117191v8.937529c0 .616689-.5033708 1.117191-1.1235955 1.117191zm12.3595506-1.117191v-8.937529c0-.616689.5033708-1.117191 1.1235955-1.117191h8.988764c.6202248 0 1.1235955.500502 1.1235955 1.117191v8.937529c0 .616689-.5033707 1.117191-1.1235955 1.117191h-8.988764c-.6202247 0-1.1235955-.498267-1.1235955-1.117191zm-2.247191 17.875057c0-.61669.5033708-1.117191 1.1235955-1.117191h8.988764c.6202247 0 1.1235955.500501 1.1235955 1.117191v8.937528c0 .61669-.5033708 1.117191-1.1235955 1.117191h-8.988764c-.6202247 0-1.1235955-.500501-1.1235955-1.117191zm7.8651685-3.351573c-.6202247 0-1.1235955-.500502-1.1235955-1.117191v-8.937529c0-.616689.5033708-1.117191 1.1235955-1.117191h8.9887641c.6202247 0 1.1235955.500502 1.1235955 1.117191v8.937529c0 .616689-.5033708 1.117191-1.1235955 1.117191zm8.9887641-13.406293c-.6202248 0-1.1235955-.500502-1.1235955-1.117191v-8.937529c0-.616689.5033707-1.117191 1.1235955-1.117191h8.988764c.6202247 0 1.1235955.500502 1.1235955 1.117191v8.937529c0 .616689-.5033708 1.117191-1.1235955 1.117191zm3.3707865 3.351573c0-.616689.5033708-1.117191 1.1235955-1.117191h8.9887642c.620225 0 1.123595.500502 1.123595 1.117191v8.937529c0 .616689-.50337 1.117191-1.123595 1.117191h-8.9887642c-.6202247 0-1.1235955-.500502-1.1235955-1.117191zm8.988764-4.468764v-8.937529c0-.616689.5033708-1.117191 1.1235957-1.117191h8.988764c.620225 0 1.123595.500502 1.123595 1.117191v8.937529c0 .616689-.50337 1.117191-1.123595 1.117191h-8.988764c-.6202249 0-1.1235957-.498267-1.1235957-1.117191zm-2.247191 17.875057c0-.61669.5033708-1.117191 1.1235955-1.117191h8.9887642c.620225 0 1.123595.500501 1.123595 1.117191v8.937528c0 .61669-.50337 1.117191-1.123595 1.117191h-8.9887642c-.6202247 0-1.1235955-.500501-1.1235955-1.117191zm7.8651687-3.351573c-.620225 0-1.123596-.500502-1.123596-1.117191v-8.937529c0-.616689.503371-1.117191 1.123596-1.117191h8.988764c.620225 0 1.123595.500502 1.123595 1.117191v8.937529c0 .616689-.50337 1.117191-1.123595 1.117191zm7.865168-14.523484v-8.937529c0-.616689.503371-1.117191 1.123596-1.117191h8.988764c.620225 0 1.123595.500502 1.123595 1.117191v8.937529c0 .616689-.50337 1.117191-1.123595 1.117191h-8.988764c-.620225 0-1.123596-.498267-1.123596-1.117191zm-2.247191 17.875057c0-.61669.503371-1.117191 1.123596-1.117191h8.988764c.620225 0 1.123595.500501 1.123595 1.117191v8.937528c0 .61669-.50337 1.117191-1.123595 1.117191h-8.988764c-.620225 0-1.123596-.500501-1.123596-1.117191zm7.865169-3.351573c-.620225 0-1.123596-.500502-1.123596-1.117191v-8.937529c0-.616689.503371-1.117191 1.123596-1.117191h8.988764c.620225 0 1.123595.500502 1.123595 1.117191v8.937529c0 .616689-.50337 1.117191-1.123595 1.117191zm7.865168-14.523484v-8.937529c0-.616689.503371-1.117191 1.123596-1.117191h8.988764c.620225 0 1.123596.500502 1.123596 1.117191v8.937529c0 .616689-.503371 1.117191-1.123596 1.117191h-8.988764c-.620225 0-1.123596-.498267-1.123596-1.117191zm-2.247191 17.875057c0-.61669.503371-1.117191 1.123596-1.117191h8.988764c.620225 0 1.123596.500501 1.123596 1.117191v8.937528c0 .61669-.503371 1.117191-1.123596 1.117191h-8.988764c-.620225 0-1.123596-.500501-1.123596-1.117191zm7.865169-3.351573c-.620225 0-1.123596-.500502-1.123596-1.117191v-8.937529c0-.616689.503371-1.117191 1.123596-1.117191h8.988764c.620225 0 1.123596.500502 1.123596 1.117191v8.937529c0 .616689-.503371 1.117191-1.123596 1.117191zm7.865169-14.523484v-8.937529c0-.616689.50337-1.117191 1.123595-1.117191h8.988764c.620225 0 1.123596.500502 1.123596 1.117191v8.937529c0 .616689-.503371 1.117191-1.123596 1.117191h-8.988764c-.620225 0-1.123595-.498267-1.123595-1.117191zm-2.247191 17.875057c0-.61669.50337-1.117191 1.123595-1.117191h8.988764c.620225 0 1.123596.500501 1.123596 1.117191v8.937528c0 .61669-.503371 1.117191-1.123596 1.117191h-8.988764c-.620225 0-1.123595-.500501-1.123595-1.117191zm7.865168-3.351573c-.620225 0-1.123595-.500502-1.123595-1.117191v-8.937529c0-.616689.50337-1.117191 1.123595-1.117191h8.988764c.620225 0 1.123596.500502 1.123596 1.117191v8.937529c0 .616689-.503371 1.117191-1.123596 1.117191zm7.865169-14.523484v-8.937529c0-.616689.50337-1.117191 1.123595-1.117191h8.988764c.620225 0 1.123596.500502 1.123596 1.117191v8.937529c0 .616689-.503371 1.117191-1.123596 1.117191h-8.988764c-.620225 0-1.123595-.498267-1.123595-1.117191zm-2.247191 17.875057c0-.61669.50337-1.117191 1.123595-1.117191h8.988764c.620225 0 1.123596.500501 1.123596 1.117191v8.937528c0 .61669-.503371 1.117191-1.123596 1.117191h-8.988764c-.620225 0-1.123595-.500501-1.123595-1.117191zm7.865168-3.351573c-.620225 0-1.123595-.500502-1.123595-1.117191v-8.937529c0-.616689.50337-1.117191 1.123595-1.117191h8.988764c.620225 0 1.123596.500502 1.123596 1.117191v8.937529c0 .616689-.503371 1.117191-1.123596 1.117191zm7.865169-14.523484v-8.937529c0-.616689.50337-1.117191 1.123595-1.117191h8.988764c.620225 0 1.123596.500502 1.123596 1.117191v8.937529c0 .616689-.503371 1.117191-1.123596 1.117191h-8.988764c-.620225 0-1.123595-.498267-1.123595-1.117191zm-2.247191 17.875057c0-.61669.50337-1.117191 1.123595-1.117191h8.988764c.620225 0 1.123596.500501 1.123596 1.117191v8.937528c0 .61669-.503371 1.117191-1.123596 1.117191h-8.988764c-.620225 0-1.123595-.500501-1.123595-1.117191zm7.865168-3.351573c-.620225 0-1.123595-.500502-1.123595-1.117191v-8.937529c0-.616689.50337-1.117191 1.123595-1.117191h8.988764c.620225 0 1.123596.500502 1.123596 1.117191v8.937529c0 .616689-.503371 1.117191-1.123596 1.117191zm7.865169-14.523484v-8.937529c0-.616689.503371-1.117191 1.123595-1.117191h8.988764c.620225 0 1.123596.500502 1.123596 1.117191v8.937529c0 .616689-.503371 1.117191-1.123596 1.117191h-8.988764c-.620224 0-1.123595-.498267-1.123595-1.117191zm-2.247191 17.875057c0-.61669.503371-1.117191 1.123595-1.117191h8.988764c.620225 0 1.123596.500501 1.123596 1.117191v8.937528c0 .61669-.503371 1.117191-1.123596 1.117191h-8.988764c-.620224 0-1.123595-.500501-1.123595-1.117191zm7.865168-3.351573c-.620224 0-1.123595-.500502-1.123595-1.117191v-8.937529c0-.616689.503371-1.117191 1.123595-1.117191h8.988764c.620225 0 1.123596.500502 1.123596 1.117191v8.937529c0 .616689-.503371 1.117191-1.123596 1.117191zm8.988764-13.406293c-.620224 0-1.123595-.500502-1.123595-1.117191v-8.937529c0-.616689.503371-1.117191 1.123595-1.117191h8.988764c.620225 0 1.123596.500502 1.123596 1.117191v8.937529c0 .616689-.503371 1.117191-1.123596 1.117191zm3.370787 3.351573c0-.616689.503371-1.117191 1.123595-1.117191h8.988764c.620225 0 1.123596.500502 1.123596 1.117191v8.937529c0 .616689-.503371 1.117191-1.123596 1.117191h-8.988764c-.620224 0-1.123595-.500502-1.123595-1.117191zm2.247191-26.812585c0-.61669.503371-1.117192 1.123595-1.117192h8.988764c.620225 0 1.123596.500502 1.123596 1.117192v8.937528c0 .61669-.503371 1.117191-1.123596 1.117191h-8.988764c-.620224 0-1.123595-.500501-1.123595-1.117191zm-13.483146-6.703147c0-.616689.503371-1.117191 1.123595-1.117191h8.988764c.620225 0 1.123596.500502 1.123596 1.117191v2.234382c0 .61669-.503371 1.117191-1.123596 1.117191h-8.988764c-.620224 0-1.123595-.500501-1.123595-1.117191zm0 6.703147c0-.61669.503371-1.117192 1.123595-1.117192h8.988764c.620225 0 1.123596.500502 1.123596 1.117192v8.937528c0 .61669-.503371 1.117191-1.123596 1.117191h-8.988764c-.620224 0-1.123595-.500501-1.123595-1.117191zm-13.483146-6.703147c0-.616689.50337-1.117191 1.123595-1.117191h8.988764c.620225 0 1.123596.500502 1.123596 1.117191v2.234382c0 .61669-.503371 1.117191-1.123596 1.117191h-8.988764c-.620225 0-1.123595-.500501-1.123595-1.117191zm0 6.703147c0-.61669.50337-1.117192 1.123595-1.117192h8.988764c.620225 0 1.123596.500502 1.123596 1.117192v8.937528c0 .61669-.503371 1.117191-1.123596 1.117191h-8.988764c-.620225 0-1.123595-.500501-1.123595-1.117191zm-13.483146-6.703147c0-.616689.50337-1.117191 1.123595-1.117191h8.988764c.620225 0 1.123596.500502 1.123596 1.117191v2.234382c0 .61669-.503371 1.117191-1.123596 1.117191h-8.988764c-.620225 0-1.123595-.500501-1.123595-1.117191zm0 6.703147c0-.61669.50337-1.117192 1.123595-1.117192h8.988764c.620225 0 1.123596.500502 1.123596 1.117192v8.937528c0 .61669-.503371 1.117191-1.123596 1.117191h-8.988764c-.620225 0-1.123595-.500501-1.123595-1.117191zm-13.483146-6.703147c0-.616689.50337-1.117191 1.123595-1.117191h8.988764c.620225 0 1.123596.500502 1.123596 1.117191v2.234382c0 .61669-.503371 1.117191-1.123596 1.117191h-8.988764c-.620225 0-1.123595-.500501-1.123595-1.117191zm0 6.703147c0-.61669.50337-1.117192 1.123595-1.117192h8.988764c.620225 0 1.123596.500502 1.123596 1.117192v8.937528c0 .61669-.503371 1.117191-1.123596 1.117191h-8.988764c-.620225 0-1.123595-.500501-1.123595-1.117191zm-13.483147-6.703147c0-.616689.503371-1.117191 1.123596-1.117191h8.988764c.620225 0 1.123596.500502 1.123596 1.117191v2.234382c0 .61669-.503371 1.117191-1.123596 1.117191h-8.988764c-.620225 0-1.123596-.500501-1.123596-1.117191zm0 6.703147c0-.61669.503371-1.117192 1.123596-1.117192h8.988764c.620225 0 1.123596.500502 1.123596 1.117192v8.937528c0 .61669-.503371 1.117191-1.123596 1.117191h-8.988764c-.620225 0-1.123596-.500501-1.123596-1.117191zm-13.483146-6.703147c0-.616689.503371-1.117191 1.123596-1.117191h8.988764c.620225 0 1.123595.500502 1.123595 1.117191v2.234382c0 .61669-.50337 1.117191-1.123595 1.117191h-8.988764c-.620225 0-1.123596-.500501-1.123596-1.117191zm0 6.703147c0-.61669.503371-1.117192 1.123596-1.117192h8.988764c.620225 0 1.123595.500502 1.123595 1.117192v8.937528c0 .61669-.50337 1.117191-1.123595 1.117191h-8.988764c-.620225 0-1.123596-.500501-1.123596-1.117191zm-13.483146-6.703147c0-.616689.503371-1.117191 1.123596-1.117191h8.988764c.620225 0 1.123595.500502 1.123595 1.117191v2.234382c0 .61669-.50337 1.117191-1.123595 1.117191h-8.988764c-.620225 0-1.123596-.500501-1.123596-1.117191zm0 6.703147c0-.61669.503371-1.117192 1.123596-1.117192h8.988764c.620225 0 1.123595.500502 1.123595 1.117192v8.937528c0 .61669-.50337 1.117191-1.123595 1.117191h-8.988764c-.620225 0-1.123596-.500501-1.123596-1.117191zm-13.4831457-6.703147c0-.616689.5033708-1.117191 1.1235955-1.117191h8.9887642c.620225 0 1.123595.500502 1.123595 1.117191v2.234382c0 .61669-.50337 1.117191-1.123595 1.117191h-8.9887642c-.6202247 0-1.1235955-.500501-1.1235955-1.117191zm0 6.703147c0-.61669.5033708-1.117192 1.1235955-1.117192h8.9887642c.620225 0 1.123595.500502 1.123595 1.117192v8.937528c0 .61669-.50337 1.117191-1.123595 1.117191h-8.9887642c-.6202247 0-1.1235955-.500501-1.1235955-1.117191zm-13.4831461-6.703147c0-.616689.5033708-1.117191 1.1235955-1.117191h8.9887641c.6202247 0 1.1235955.500502 1.1235955 1.117191v2.234382c0 .61669-.5033708 1.117191-1.1235955 1.117191h-8.9887641c-.6202247 0-1.1235955-.500501-1.1235955-1.117191zm0 6.703147c0-.61669.5033708-1.117192 1.1235955-1.117192h8.9887641c.6202247 0 1.1235955.500502 1.1235955 1.117192v8.937528c0 .61669-.5033708 1.117191-1.1235955 1.117191h-8.9887641c-.6202247 0-1.1235955-.500501-1.1235955-1.117191zm-13.483146-6.703147c0-.616689.5033707-1.117191 1.1235955-1.117191h8.988764c.6202247 0 1.1235955.500502 1.1235955 1.117191v2.234382c0 .61669-.5033708 1.117191-1.1235955 1.117191h-8.988764c-.6202248 0-1.1235955-.500501-1.1235955-1.117191zm0 6.703147c0-.61669.5033707-1.117192 1.1235955-1.117192h8.988764c.6202247 0 1.1235955.500502 1.1235955 1.117192v8.937528c0 .61669-.5033708 1.117191-1.1235955 1.117191h-8.988764c-.6202248 0-1.1235955-.500501-1.1235955-1.117191zm-13.4831461-6.703147c0-.616689.5033708-1.117191 1.1235955-1.117191h8.988764c.6202248 0 1.1235955.500502 1.1235955 1.117191v2.234382c0 .61669-.5033707 1.117191-1.1235955 1.117191h-8.988764c-.6202247 0-1.1235955-.500501-1.1235955-1.117191zm0 6.703147c0-.61669.5033708-1.117192 1.1235955-1.117192h8.988764c.6202248 0 1.1235955.500502 1.1235955 1.117192v8.937528c0 .61669-.5033707 1.117191-1.1235955 1.117191h-8.988764c-.6202247 0-1.1235955-.500501-1.1235955-1.117191zm-13.4831461-6.703147c0-.616689.5033708-1.117191 1.1235955-1.117191h8.9887641c.6202247 0 1.1235955.500502 1.1235955 1.117191v2.234382c0 .61669-.5033708 1.117191-1.1235955 1.117191h-8.9887641c-.6202247 0-1.1235955-.500501-1.1235955-1.117191zm0 6.703147c0-.61669.5033708-1.117192 1.1235955-1.117192h8.9887641c.6202247 0 1.1235955.500502 1.1235955 1.117192v8.937528c0 .61669-.5033708 1.117191-1.1235955 1.117191h-8.9887641c-.6202247 0-1.1235955-.500501-1.1235955-1.117191zm0 13.406292c0-.616689.5033708-1.117191 1.1235955-1.117191h15.7303371c.6202247 0 1.1235955.500502 1.1235955 1.117191v8.937529c0 .616689-.5033708 1.117191-1.1235955 1.117191h-15.7303371c-.6202247 0-1.1235955-.500502-1.1235955-1.117191zm0 13.406293c0-.616689.5033708-1.117191 1.1235955-1.117191h20.2247191c.6202247 0 1.1235955.500502 1.1235955 1.117191v8.937529c0 .616689-.5033708 1.117191-1.1235955 1.117191h-20.2247191c-.6202247 0-1.1235955-.500502-1.1235955-1.117191zm0 13.406293c0-.61669.5033708-1.117191 1.1235955-1.117191h13.4831461c.6202247 0 1.1235955.500501 1.1235955 1.117191v8.937528c0 .61669-.5033708 1.117191-1.1235955 1.117191h-13.4831461c-.6202247 0-1.1235955-.500501-1.1235955-1.117191zm17.9775281 22.343821c0 .61669-.5033708 1.117191-1.1235955 1.117191h-15.7303371c-.6202247 0-1.1235955-.500501-1.1235955-1.117191v-8.937528c0-.61669.5033708-1.117192 1.1235955-1.117192h15.7303371c.6202247 0 1.1235955.500502 1.1235955 1.117192zm0-13.406293v-8.937528c0-.61669.5033708-1.117191 1.1235955-1.117191h8.9887641c.6202247 0 1.1235955.500501 1.1235955 1.117191v8.937528c0 .61669-.5033708 1.117191-1.1235955 1.117191h-8.9887641c-.6202247 0-1.1235955-.498267-1.1235955-1.117191zm17.9865169 13.406293c0 .61669-.5033708 1.117191-1.1235955 1.117191h-13.4921349c-.6202247 0-1.1235955-.500501-1.1235955-1.117191v-8.937528c0-.61669.5033708-1.117192 1.1235955-1.117192h13.4921349c.6202247 0 1.1235955.500502 1.1235955 1.117192zm20.2157303 0c0 .61669-.5033708 1.117191-1.1235955 1.117191h-15.7303371c-.6202247 0-1.1235955-.500501-1.1235955-1.117191v-8.937528c0-.61669.5033708-1.117192 1.1235955-1.117192h15.7303371c.6202247 0 1.1235955.500502 1.1235955 1.117192zm0-13.406293c0 .61669-.5033708 1.117191-1.1235955 1.117191h-8.988764c-.6202248 0-1.1235956-.500501-1.1235956-1.117191v-8.937528c0-.61669.5033708-1.117191 1.1235956-1.117191h8.988764c.6202247 0 1.1235955.500501 1.1235955 1.117191zm76.4044947 13.406293c0 .61669-.503371 1.117191-1.123596 1.117191h-71.9101122c-.6202247 0-1.1235955-.500501-1.1235955-1.117191v-8.937528c0-.61669.5033708-1.117192 1.1235955-1.117192h71.9101122c.620225 0 1.123596.500502 1.123596 1.117192zm20.224719 0c0 .61669-.503371 1.117191-1.123596 1.117191h-15.730337c-.620225 0-1.123595-.500501-1.123595-1.117191v-8.937528c0-.61669.50337-1.117192 1.123595-1.117192h15.730337c.620225 0 1.123596.500502 1.123596 1.117192zm0-13.406293v-8.937528c0-.61669.503371-1.117191 1.123595-1.117191h8.988764c.620225 0 1.123596.500501 1.123596 1.117191v8.937528c0 .61669-.503371 1.117191-1.123596 1.117191h-8.988764c-.620224 0-1.123595-.498267-1.123595-1.117191zm17.977528 13.406293c0 .61669-.503371 1.117191-1.123596 1.117191h-13.492134c-.620225 0-1.123596-.500501-1.123596-1.117191v-8.937528c0-.61669.503371-1.117192 1.123596-1.117192h13.492134c.620225 0 1.123596.500502 1.123596 1.117192zm20.224719 0c0 .61669-.503371 1.117191-1.123596 1.117191h-15.730337c-.620224 0-1.123595-.500501-1.123595-1.117191v-8.937528c0-.61669.503371-1.117192 1.123595-1.117192h15.730337c.620225 0 1.123596.500502 1.123596 1.117192zm0-13.406293c0 .61669-.503371 1.117191-1.123596 1.117191h-22.47191c-.620224 0-1.123595-.500501-1.123595-1.117191v-8.937528c0-.61669.503371-1.117191 1.123595-1.117191h22.47191c.620225 0 1.123596.500501 1.123596 1.117191zm0-13.406292c0 .616689-.503371 1.117191-1.123596 1.117191h-2.247191c-.620224 0-1.123595-.500502-1.123595-1.117191v-11.171911c0-1.117191-1.123596-1.117191-1.123596-1.117191h-2.247191c-.620224 0-1.123595-.500502-1.123595-1.117191v-8.937529c0-.616689.503371-1.117191 1.123595-1.117191h4.494382 2.247191c.620225 0 1.123596.500502 1.123596 1.117191zm0-26.812586c0 .61669-.503371 1.117191-1.123596 1.117191h-13.483146c-.620224 0-1.123595-.500501-1.123595-1.117191v-8.937528c0-.61669.503371-1.117192 1.123595-1.117192h13.483146c.620225 0 1.123596.500502 1.123596 1.117192zm0-13.406293c0 .61669-.503371 1.117191-1.123596 1.117191h-13.483146c-.620224 0-1.123595-.500501-1.123595-1.117191v-2.234382c0-.616689.503371-1.117191 1.123595-1.117191h13.483146c.620225 0 1.123596.500502 1.123596 1.117191z"/></g></g></svg>